# xmcd
#
# Track frame offsets:
#	150
#	17308
#	32713
#	48140
#
# Disc length: 882 seconds
# Revision: 0
# Processed by: cddbd v1.5.2PL0 Copyright (c) Steve Scherf et al.
# Submitted via: dBpowerAMP V12.0
#
DISCID=1f037004
DTITLE=Joe Robinson - Toe Jam
DYEAR=2012
DGENRE=Blues Instrumental
TTITLE0=Toe Jam
TTITLE1=Piece Of The Puzzle
TTITLE2=One On One
TTITLE3=Help Me
EXTD=
EXTT0=
EXTT1=
EXTT2=
EXTT3=
PLAYORDER=
